<svg xmlns="http://www.w3.org/2000/svg" width="340" height="56" viewBox="0 0 3053 503"><g fill="#0069BD"><path d="M1796.48 0h26.04c47.63 3.14 94.79 18.71 133.42 47.07 34.08 24.27 61.94 57.2 80.06 94.93 19.91 40.8 27.84 87.18 23.86 132.32-29.07-16.22-63.06-17.54-95.38-20.83-12.78-.09-22.44-8.62-31.23-16.74-7.18-6.84-15.29-12.68-21.89-20.1-8.03-10.71-10.94-24.27-19.15-34.87-7.2-10.17-18.06-18.88-30.84-20.04-14.14-1.64-27.83 3.06-41.38 6.24-23.88 5.79-47.36 13.43-71.65 17.42-12.88 2.06-27.59 2.35-38.02-6.75-14.24-11.5-17.02-31.88-12.33-48.68 1.9-11.77 12.91-21.53 25.04-20.74 12.01-1.21 24.67 2.18 36.38-1.79 14.01-5.23 16.84-22.26 13.31-35.12-1.95-5.11-4.26-11.04-9.8-13.15-9.22-4.17-19.43-6.15-29.48-6.67-5.54.99-7.67 8.58-5.08 13.1 4.82 4.01 12.28 3.66 16.87 8.18 2.35 2.97 2.62 7.78.5 10.93-5.42 5.34-13.5 3-19.99 1.45-11.11-3.14-23.38-5.14-34.45-.89-10.25 3.7-18.79 11.38-24.26 20.73-10.83 16.55-14.66 36.61-15.74 56.06-2.44 31.26 6.48 63.83 26.31 88.32 7.58 9.27 17.11 17.14 28.17 21.91 9.95 4.21 20.89 4.21 31.44 5.65 2.96.37 5.82 2.45 6.38 5.52.98 5.89-.76 12.7-5.38 16.73-7.18 6.51-15.72 11.16-24.16 15.75-.06.83-.19 2.48-.25 3.3 8.79 5.96 18.47 10.54 26.84 17.14 8.07 5.88 16.25 12.71 26.38 14.5 10.82 2.97 22.35.66 33.11 4 6.52 2.03 12.3 7.4 13.3 14.39 1.84 21.54-.02 43.16-.18 64.74-.67 23.27 6.22 45.79 11.55 68.18-1.51.28-3.01.56-4.47.81h-22.75c-25.98-2.46-52.02-6.68-76.5-16.02-48.65-18.14-91.15-51.89-120.11-94.96-24.92-36.51-39.39-79.89-42.37-123.93-2-39.11 4-78.93 19.44-115.05 19.67-46.72 54.1-87.02 97-113.98C1711.17 15.6 1753.65 2.94 1796.48 0zM96 117.99c10.34-20.88 33.53-35.33 57-33.98 17.83-.54 35.62 7.23 47.24 20.76 11.85 12.53 15.37 29.9 20.19 45.88 20.08 68.29 40.41 136.52 60.61 204.78 6.76.37 13.58.39 20.29 1.43 2.78.61 4.41 3.46 4.55 6.15.68 10.08.88 20.3-.64 30.32-1.28 5.28-8.07 4.99-12.2 4.85-78.34-.37-156.69-.09-235.04-.19-19.32-.23-38.86 1.45-58-1.95v-36.69c7.2-4.58 16.46-2.83 24.51-4.11 21.76-74.11 43.86-148.12 65.66-222.22 1.72-5.09 3.22-10.3 5.83-15.03m44.18 15.21c-6.14 5.42-7.25 14.09-9.65 21.44-19.82 67.12-39.66 134.24-59.6 201.33 54.44.03 108.88.11 163.33-.05-19.3-65.98-39.03-131.83-58.47-197.77-2.37-8.12-4.16-16.74-9.2-23.74-6.67-7.06-19.35-8.36-26.41-1.21zM2256.43 84.53c40.04-5.77 82.26 14.52 102.6 49.46 3.08 4.65 7.58 12.08 3.19 17.22-7.44 4.87-16.08 7.38-24.2 10.86-4.31 1.19-10.37 4.24-13.08-.97-6.16-8.4-11.26-17.93-19.89-24.12-15.07-11.1-36.05-15.61-53.76-8.62-23.73 7.82-40.59 31.84-41.04 56.67-.59 38.32-.17 76.66-.21 114.99-.41 26.78 19.84 52.2 45.98 57.87 18.54 4.75 38.05.08 54.99-7.91 10.13-4.5 18.13-12.37 26.44-19.48 3.07-3.44 9.06-3.6 12.16-.08 6.54 6.03 13.38 12 18.87 19.07 3.54 5.07-1.07 10.84-4.76 14.2-25.32 23.85-59.79 38.12-94.72 37.39-51.79 1.53-99.66-42.49-102.87-94.12-2.44-37.26-.6-74.66-1.1-111.98-.55-32.36 12.74-65.25 37.57-86.41 15.09-12.97 34-21.73 53.83-24.04zM416.44 161.44c39.35-2.22 78.6 20.54 96.48 55.61 14.34 26.1 12.55 57.07 11.77 85.8-1.67 32.35-19.34 63.65-46.67 81.18-30.69 20.87-72.91 22.76-105.71 5.63-18.6-10.25-34.98-25.35-44.29-44.67-12.26-21.75-12.48-47.74-12.12-72-.25-22.05 4.26-44.82 16.65-63.39 17.62-28.81 50.25-47.11 83.89-48.16m-4.01 42.04c-21.06 2.77-39.68 17.94-47.25 37.68-6.12 14.45-3.89 30.59-4.3 45.84-.02 13.78.03 28.67 7.12 41 11.84 22.83 39.9 36.66 65.12 30.13 25.1-4.67 44.71-27.99 46.84-53.11.16-16.86.55-33.76-.52-50.59-3.51-31.46-35.69-56.13-67.01-50.95zM1101.44 161.44c35.51-1.76 71.38 16.54 90.55 46.56 6.71 9.91 11.57 21.02 14.44 32.64 4.06 18.83 2.26 38.26 2.63 57.37.53 35.91-20.01 71.1-51.08 88.92-29.28 17.41-67.39 19.14-98.01 4.12-35.03-16.15-59.14-53.37-58.88-92.03.17-22.3-2.46-45.47 5.18-66.92 13.01-40.22 52.76-70.02 95.17-70.66m-4.01 42.07c-28.15 3-51.99 28.99-51.49 57.46.04 16.79-.56 33.63.69 50.39 4.26 22.27 22.22 41.43 44.37 46.58 25.14 6.81 53.89-5.96 65.97-28.99 8.13-13.44 8.43-29.74 8.17-44.95-.13-16.98.73-35.62-8.4-50.72-11.29-20.72-35.88-33.2-59.31-29.77zM1290.22 183.89c26.29-25.46 68.33-28.54 100.73-13.81 32.95 13.69 57.3 45.92 61.49 81.35.96 19.7 1.01 39.48.08 59.18-4.1 37.36-30.98 70.92-66.11 83.92-19.57 7.13-41.31 8.7-61.57 3.73-13.05-3.35-24.56-10.84-34.76-19.43-.37 28.41.24 56.82-.11 85.22.11 4.54-3.92 9.34-8.96 7.86-10.01.45-20.04.52-30.02-.03-2.8-.1-4.93-2.71-5.46-5.28-1.2-13.17-.43-26.41-.54-39.6.01-83.35.05-166.7-.05-250.04-1.13-4.71 1.28-10.71 6.47-11.4 10.67-.85 21.6-1.49 32.27-.13 7.93 2.32 5.9 12.13 6.54 18.46m51.21 19.63c-29.19 3.21-53.11 31.07-51.5 60.46-.01 14.86-.42 29.75.62 44.6 2.51 20.38 16.84 38.3 35.57 46.33 22.21 10.17 50.16 3.61 66.55-14.22 10.93-11.67 16.65-27.77 16.4-43.67-.44-17.64 1.82-35.78-3.24-52.95-8.45-26.32-36.78-45.05-64.4-40.55zM2484.07 163.09c23.71-6.28 50.7 4.27 63.84 24.97 7.32 10.05 9.18 22.53 12.85 34.1 15.69 52.97 31.44 105.92 47.06 158.91.89 4.96 4.64 13.22-1.48 16.21-12.04 1.47-24.29 1.04-36.36.64-5.19-.46-5.55-7.22-7.2-10.82-14.54-49.68-29.4-99.28-44.04-148.94-2.81-8.7-4.13-18.04-9.03-25.91-5.42-8.32-18.91-7.73-24.09.38-4.19 8.57-6.18 17.98-8.95 27.05-13.41 45.24-26.82 90.47-40.21 135.7-2.32 7.71-3.78 15.89-8.23 22.73-12.4-.25-24.81.47-37.14-.31-6.09-.86-5.58-8.3-4.31-12.87 17.7-59.38 35.14-118.85 52.83-178.23 5.43-21.14 22.75-39.37 44.46-43.61zM2721.45 161.45c41.05-2.21 82.02 22.84 98.52 60.57 12.4 24.5 8.67 52.58 8.99 79 .08 38.35-24.96 74.5-59.34 90.55-26.71 12-58.61 13.17-85.56 1.31-27-11.19-48.32-34.6-57.68-62.2-6.87-20.51-5.36-42.42-5.44-63.69-1.04-36.09 18.9-71.74 49.75-90.32 15.16-9.52 32.93-14.38 50.76-15.22m-4.02 42.07c-29.56 3.23-53.59 31.75-51.53 61.47.1 14.85-.51 29.75.71 44.58 4.15 31.31 37.13 55.52 68.28 49.24 21.69-3.43 40.63-19.79 46.99-40.86 5.22-16.5 2.77-33.99 3.08-50.97.14-15.52-4.3-31.45-14.69-43.25-12.92-14.74-33.2-23.42-52.84-20.21zM569.4 165.53c10.15-1.05 20.42-.99 30.61-.43 4.78.33 9.11 4.78 7.85 9.9.52 30.35-.1 60.71.15 91.07 15.74-.84 34.63 2.89 47.7-8.37 9.75-10.13 15.71-23.14 22.87-35.09 8.83-15.76 18.38-31.11 27.03-46.97 2.24-3.31 3.83-7.48 7.35-9.65 5.12-1.58 10.72-.76 16.03-1.2 9.55.58 20.64-2.45 28.72 4.21-.35 4.53-1.02 9.18-3.61 13.06-18.57 30.99-35.64 62.89-54.88 93.49 14.93 8.01 25.07 22.27 31.78 37.45 9.09 20.36 17.32 41.09 26.6 61.37 2.27 5.37 5.14 10.7 5.36 16.69.35 2.77-1.33 6.11-4.35 6.42-12.18.96-24.45 1.02-36.63.45-4.06-.33-5.11-5.17-6.85-8.04-8.46-19.26-16.21-38.84-25.03-57.94-3.86-8.85-10.79-16.7-20.16-19.78-20.04-5.98-41.33-3.67-61.93-4.17-.26 26.66.39 53.34-.15 80 .41 3.54-.72 7.97-4.26 9.52-11.51 1.01-23.1.89-34.62.37-2.9-.05-4.9-2.88-5.34-5.52-.87-6.75-.69-13.58-.74-20.37.28-65.01-.04-130.03.12-195.04-.9-4.62 1.47-10.37 6.38-11.43zM793.46 169.4c2.52-5.47 9.7-4.05 14.51-4.44 53.35 0 106.7.15 160.06-.07 4.12-.2 10.75-.28 12.26 4.76 1.28 10.7 1.21 21.6.63 32.36-.47 4.54-5.97 6.5-9.92 5.85-20.66.56-41.34-.09-62 .15-.06 60.01.07 120.02-.01 180.03.28 3.17.02 9.05-4.38 9.45-11.73 1.01-23.6 1.09-35.32.1-5.93-1.37-3.62-9.36-4.33-13.56.04-58.67.07-117.34.03-176.02-21.67-.29-43.35.47-65-.16-4.24-.17-8.27-4.28-6.93-8.84-.44-9.86-.58-19.78.4-29.61zM2870.55 165.56c11.09-1.71 22.61-1.05 33.77.21 4.43.97 5.26 6.41 4.73 10.17.21 28.34-.28 56.7-.03 85.05 33.31.03 66.63.05 99.96-.01.59-30.18-1.07-60.41.62-90.55.99-5.93 8.95-5.53 13.36-5.71 9.77.68 21.37-2.04 30.04 3.89v227.45c-12.99 2.64-26.46 2.96-39.55 1.37-4.12-.64-4.73-6.21-4.38-9.38-.52-28.34.2-56.69-.09-85.04-33.33-.03-66.65-.04-99.96 0-.22 27.34.18 54.69.05 82.04-.98 3.82 1.56 10.78-3.68 12.28-10.37 1.59-20.99 1.07-31.39.59-2.66-.6-5.93.25-7.65-2.25-1.93-3.13-1.32-7.21-1.52-10.63.36-68.36.07-136.73.13-205.09.2-4.86-1.03-13.18 5.59-14.39z"/></g></svg>